<svg width="24" height="22" viewBox="0 0 24 22" fill="none" xmlns="http://www.w3.org/2000/svg">
<g clip-path="url(#clip0_69_100)">
<path fill-rule="evenodd" clip-rule="evenodd" d="M0.00280762 14.1391C0.00280762 17.2184 1.53643 18.5304 3.80491 20.0375C9.60924 23.8976 23.9976 22.0977 23.9976 14.3126C23.9976 13.9114 23.9443 14.1065 23.8272 13.6186H2.56949C1.77073 13.6186 0.00280762 13.2933 0.00280762 14.1391Z" fill="#FBFBFB"/>
<path fill-rule="evenodd" clip-rule="evenodd" d="M3.60269 5.23706H20.2276L18.9283 1.14933C18.7472 0.563825 18.7472 0 18.1721 0H5.65817C5.02981 0 4.89136 1.21439 4.476 2.46131C4.1778 3.3721 3.80504 4.32627 3.59204 5.22622L3.60269 5.23706Z" fill="#FBFBFB"/>
<path fill-rule="evenodd" clip-rule="evenodd" d="M0.684082 12.2198H11.1425V6.46228H3.09101C2.52656 6.46228 2.45201 7.03695 2.29225 7.56824L0.694732 12.2198H0.684082Z" fill="#FBFBFB"/>
<path fill-rule="evenodd" clip-rule="evenodd" d="M12.8574 12.2198H23.3159L21.6012 7.67667C21.4201 7.18875 21.3243 6.46228 20.7385 6.46228H12.8574V12.2198Z" fill="#FBFBFB"/>
</g>
<defs>
<clipPath id="clip0_69_100">
<rect width="24" height="22" fill="white"/>
</clipPath>
</defs>
</svg>
