<svg width="27" height="26" viewBox="0 0 27 26" fill="none" xmlns="http://www.w3.org/2000/svg">
<path fill-rule="evenodd" clip-rule="evenodd" d="M14.4633 14.1294C14.4633 15.0588 14.709 15.6066 15.2496 16.2378C15.6592 16.7029 15.7901 17.2999 15.7901 17.9476C15.7901 18.5945 15.5776 19.2086 15.1517 19.7072C14.5943 20.3049 13.8081 20.6865 13.0057 20.7529C11.8429 20.852 10.6794 20.9355 9.50048 20.9355C8.32081 20.9355 7.15805 20.8855 5.99529 20.7529C5.19217 20.6865 4.40597 20.3049 3.84923 19.7072C3.4234 19.2086 3.21011 18.5945 3.21011 17.9476C3.21011 17.2999 3.34176 16.7029 3.75067 16.2378C4.30815 15.6066 4.53761 15.0588 4.53761 14.1294V13.8141C4.53761 12.5695 4.84798 11.7556 5.48709 10.9589C6.4373 9.79695 7.96043 9.1001 9.46739 9.1001H9.53358C11.0729 9.1001 12.6453 9.83049 13.5793 11.0423C14.1853 11.8227 14.4633 12.6023 14.4633 13.8141V14.1294ZM7.33464 22.4651C7.33464 22.0925 7.67662 21.9218 7.99287 21.8488C8.3628 21.7705 10.617 21.7705 10.9869 21.8488C11.3032 21.9218 11.6452 22.0925 11.6452 22.4651C11.6268 22.8199 11.4186 23.1344 11.1311 23.3341C10.7582 23.6248 10.3206 23.8089 9.86314 23.8752C9.61014 23.908 9.36156 23.9088 9.11738 23.8752C8.65919 23.8089 8.2216 23.6248 7.84946 23.3334C7.56116 23.1344 7.35302 22.8199 7.33464 22.4651Z" fill="#272835"/>
<circle cx="22.25" cy="4.25" r="4.25" fill="#A14807"/>
</svg>
