<svg width="20" height="20" viewBox="0 0 20 20" fill="none" xmlns="http://www.w3.org/2000/svg">
<path d="M15.8333 5H13.3333V4.16667C13.3333 3.72464 13.1577 3.30072 12.8451 2.98816C12.5326 2.67559 12.1087 2.5 11.6666 2.5H8.33329C7.89127 2.5 7.46734 2.67559 7.15478 2.98816C6.84222 3.30072 6.66663 3.72464 6.66663 4.16667V5H4.16663C3.50358 5 2.8677 5.26339 2.39886 5.73223C1.93002 6.20107 1.66663 6.83696 1.66663 7.5V15C1.66663 15.663 1.93002 16.2989 2.39886 16.7678C2.8677 17.2366 3.50358 17.5 4.16663 17.5H15.8333C16.4963 17.5 17.1322 17.2366 17.6011 16.7678C18.0699 16.2989 18.3333 15.663 18.3333 15V7.5C18.3333 6.83696 18.0699 6.20107 17.6011 5.73223C17.1322 5.26339 16.4963 5 15.8333 5ZM8.33329 4.16667H11.6666V5H8.33329V4.16667ZM16.6666 15C16.6666 15.221 16.5788 15.433 16.4225 15.5893C16.2663 15.7455 16.0543 15.8333 15.8333 15.8333H4.16663C3.94561 15.8333 3.73365 15.7455 3.57737 15.5893C3.42109 15.433 3.33329 15.221 3.33329 15V10.8333H6.66663V11.6667C6.66663 11.8877 6.75442 12.0996 6.9107 12.2559C7.06698 12.4122 7.27895 12.5 7.49996 12.5C7.72097 12.5 7.93293 12.4122 8.08922 12.2559C8.2455 12.0996 8.33329 11.8877 8.33329 11.6667V10.8333H11.6666V11.6667C11.6666 11.8877 11.7544 12.0996 11.9107 12.2559C12.067 12.4122 12.2789 12.5 12.5 12.5C12.721 12.5 12.9329 12.4122 13.0892 12.2559C13.2455 12.0996 13.3333 11.8877 13.3333 11.6667V10.8333H16.6666V15ZM16.6666 9.16667H3.33329V7.5C3.33329 7.27899 3.42109 7.06702 3.57737 6.91074C3.73365 6.75446 3.94561 6.66667 4.16663 6.66667H15.8333C16.0543 6.66667 16.2663 6.75446 16.4225 6.91074C16.5788 7.06702 16.6666 7.27899 16.6666 7.5V9.16667Z" fill="white"/>
</svg>
