<svg width="20" height="20" viewBox="0 0 20 20" fill="none" xmlns="http://www.w3.org/2000/svg">
<path d="M17.8416 7.19994C17.8416 7.19994 17.8416 7.19994 17.8416 7.15828C17.2545 5.55513 16.1891 4.17101 14.7895 3.19316C13.39 2.21531 11.7239 1.69092 10.0166 1.69092C8.30933 1.69092 6.64324 2.21531 5.24372 3.19316C3.8442 4.17101 2.77879 5.55513 2.19163 7.15828C2.19163 7.15828 2.19163 7.15828 2.19163 7.19994C1.5359 9.00902 1.5359 10.9909 2.19163 12.7999C2.19163 12.7999 2.19163 12.7999 2.19163 12.8416C2.77879 14.4448 3.8442 15.8289 5.24372 16.8067C6.64324 17.7846 8.30933 18.309 10.0166 18.309C11.7239 18.309 13.39 17.7846 14.7895 16.8067C16.1891 15.8289 17.2545 14.4448 17.8416 12.8416C17.8416 12.8416 17.8416 12.8416 17.8416 12.7999C18.4974 10.9909 18.4974 9.00902 17.8416 7.19994ZM3.54996 11.6666C3.26098 10.5743 3.26098 9.4256 3.54996 8.33327H5.09996C4.96665 9.44039 4.96665 10.5595 5.09996 11.6666H3.54996ZM4.23329 13.3333H5.39996C5.59556 14.0765 5.87514 14.795 6.23329 15.4749C5.41604 14.9182 4.73287 14.1867 4.23329 13.3333ZM5.39996 6.66661H4.23329C4.72568 5.81585 5.40012 5.0845 6.20829 4.52494C5.85875 5.20598 5.58758 5.92446 5.39996 6.66661ZM9.16663 16.4166C8.1431 15.6655 7.42425 14.571 7.14163 13.3333H9.16663V16.4166ZM9.16663 11.6666H6.78329C6.62778 10.5609 6.62778 9.43894 6.78329 8.33327H9.16663V11.6666ZM9.16663 6.66661H7.14163C7.42425 5.42891 8.1431 4.33437 9.16663 3.58328V6.66661ZM15.7666 6.66661H14.6C14.4044 5.92341 14.1248 5.20489 13.7666 4.52494C14.5839 5.08167 15.267 5.81323 15.7666 6.66661ZM10.8333 3.58328C11.8568 4.33437 12.5757 5.42891 12.8583 6.66661H10.8333V3.58328ZM10.8333 16.4166V13.3333H12.8583C12.5757 14.571 11.8568 15.6655 10.8333 16.4166ZM13.2166 11.6666H10.8333V8.33327H13.2166C13.3721 9.43894 13.3721 10.5609 13.2166 11.6666ZM13.7916 15.4749C14.1498 14.795 14.4294 14.0765 14.625 13.3333H15.7916C15.292 14.1867 14.6089 14.9182 13.7916 15.4749ZM16.45 11.6666H14.9C14.9677 11.1137 15.0011 10.557 15 9.99994C15.0009 9.44286 14.9675 8.88625 14.9 8.33327H16.45C16.7389 9.4256 16.7389 10.5743 16.45 11.6666Z" fill="white"/>
</svg>
