<svg width="16" height="16" viewBox="0 0 16 16" fill="none" xmlns="http://www.w3.org/2000/svg">
<path d="M13.44 3.07329C12.7322 2.3653 11.7938 1.93484 10.7955 1.86021C9.79715 1.78558 8.80519 2.07173 8 2.66662C7.15177 2.03572 6.09599 1.74963 5.04528 1.86598C3.99456 1.98233 3.02696 2.49248 2.33731 3.29368C1.64767 4.09488 1.28721 5.12764 1.32853 6.18397C1.36985 7.2403 1.80988 8.24174 2.56 8.98662L7.52667 13.9533C7.58864 14.0158 7.66237 14.0654 7.74361 14.0992C7.82485 14.1331 7.91199 14.1505 8 14.1505C8.08801 14.1505 8.17514 14.1331 8.25638 14.0992C8.33762 14.0654 8.41136 14.0158 8.47333 13.9533L13.44 8.98662C13.8284 8.59844 14.1366 8.13752 14.3468 7.6302C14.557 7.12288 14.6653 6.57911 14.6653 6.02996C14.6653 5.4808 14.557 4.93703 14.3468 4.42971C14.1366 3.92239 13.8284 3.46147 13.44 3.07329ZM12.5 8.04662L8 12.54L3.5 8.04662C3.10345 7.64842 2.83332 7.14199 2.72349 6.59085C2.61366 6.03971 2.66902 5.46841 2.88263 4.94862C3.09625 4.42883 3.4586 3.98369 3.92423 3.66904C4.38986 3.35439 4.93804 3.18425 5.5 3.17996C6.25074 3.1818 6.97006 3.48151 7.5 4.01329C7.56197 4.07578 7.63571 4.12537 7.71695 4.15922C7.79819 4.19306 7.88532 4.21049 7.97333 4.21049C8.06134 4.21049 8.14848 4.19306 8.22972 4.15922C8.31096 4.12537 8.38469 4.07578 8.44667 4.01329C8.99221 3.54055 9.69699 3.29272 10.4184 3.31997C11.1397 3.34723 11.8238 3.64752 12.3321 4.16008C12.8404 4.67264 13.1351 5.35918 13.1563 6.08075C13.1776 6.80232 12.9239 7.50502 12.4467 8.04662H12.5Z" fill="#686868"/>
</svg>
