<svg width="16" height="16" viewBox="0 0 16 16" fill="none" xmlns="http://www.w3.org/2000/svg">
<g clip-path="url(#clip0_121_173)">
<path d="M10 2H4C3.44667 2 2.97333 2.33333 2.77333 2.81333L0.76 7.51333C0.7 7.66667 0.666667 7.82667 0.666667 8V9.33333C0.666667 10.0667 1.26667 10.6667 2 10.6667H6.20667L5.57333 13.7133L5.55333 13.9267C5.55333 14.2 5.66667 14.4533 5.84667 14.6333L6.55333 15.3333L10.9467 10.94C11.1867 10.7 11.3333 10.3667 11.3333 10V3.33333C11.3333 2.6 10.7333 2 10 2ZM12.6667 2V10H15.3333V2H12.6667Z" fill="#686868"/>
</g>
<defs>
<clipPath id="clip0_121_173">
<rect width="16" height="16" fill="white"/>
</clipPath>
</defs>
</svg>
