<svg width="19" height="19" viewBox="0 0 19 19" fill="none" xmlns="http://www.w3.org/2000/svg">
<circle cx="9.5" cy="9.5" r="9.5" fill="white"/>
<circle cx="9.5" cy="9.5" r="9" stroke="black" stroke-opacity="0.5"/>
<g clip-path="url(#clip0_73_46)">
<path fill-rule="evenodd" clip-rule="evenodd" d="M10.1927 6.96333C10.1312 7.03695 9.92191 7.25781 9.84805 7.29463C9.83574 7.31917 9.84805 7.3069 9.82343 7.33144C9.81112 7.34371 9.79881 7.35598 9.7865 7.35598C9.76188 7.38052 9.73726 7.40506 9.71264 7.41733L9.66339 7.47868C9.62646 7.50322 9.65108 7.50322 9.60184 7.52776C9.58953 7.57684 9.50336 7.63819 9.46643 7.675C9.39256 7.77316 9.3187 7.83452 9.20791 7.93268C9.17097 7.96949 9.12173 8.03084 9.0848 8.06765C9.04787 8.10446 8.99863 8.14127 8.94939 8.19035C8.88783 8.2517 8.87552 8.27624 8.82628 8.32533L8.43234 8.69343C8.40772 8.75478 8.29693 8.84068 8.28462 8.84068C8.28462 8.84068 8.28462 8.84068 8.27231 8.84068C8.23538 8.90203 8.0261 9.12289 7.95224 9.1597L7.80451 9.30695C7.7922 9.33149 7.7922 9.33149 7.76758 9.35603C7.76758 9.3683 7.74296 9.3683 7.74296 9.38057L7.73065 9.39284C7.73065 9.39284 7.71834 9.39284 7.71834 9.40511C7.69372 9.45419 7.61985 9.52781 7.57061 9.55235C7.53368 9.6137 7.25054 9.89592 7.18899 9.95727L6.80736 10.3254C6.75812 10.3745 6.7335 10.4113 6.68426 10.4603L6.56115 10.5831C6.56115 10.5831 6.54884 10.5831 6.54884 10.5953C6.43805 10.7548 6.1549 11.0493 6.11797 11.2825C6.09335 11.3929 6.10566 11.3806 6.14259 11.4665L6.16721 11.491C6.24108 11.5279 6.91815 12.2395 7.02895 12.35L7.45982 12.7794C7.47213 12.7917 7.49675 12.8162 7.50906 12.8285C7.54599 12.8653 7.52137 12.8285 7.54599 12.8776C7.58292 12.8776 7.70603 12.8776 7.74296 12.8776L8.01379 12.7303C8.0261 12.6935 8.12458 12.6445 8.17382 12.6199C8.3831 12.4604 8.58007 12.2763 8.75242 12.0923C8.80166 12.0432 8.8509 12.0064 8.90014 11.9573C8.94939 11.9082 8.98632 11.8592 9.03556 11.8101L10.1435 10.7058C10.1804 10.6689 10.242 10.5953 10.2789 10.5831C10.2912 10.5585 10.2912 10.5585 10.3158 10.534C10.3528 10.4972 10.3282 10.5094 10.3651 10.4972C10.3774 10.4603 10.3897 10.4481 10.4266 10.4113L10.5128 10.3499C10.5251 10.3254 10.5251 10.3376 10.5374 10.3131L10.5497 10.3008C10.5744 10.2763 10.5497 10.3008 10.5867 10.264C10.6113 10.2272 10.6975 10.1291 10.7467 10.1168C10.759 10.08 10.759 10.0922 10.7836 10.0677C10.8083 10.0432 10.8083 10.0432 10.8329 10.0309C10.8575 9.98181 10.9191 9.93273 10.9806 9.87138C11.0299 9.8223 11.0791 9.77321 11.1407 9.71186C11.1776 9.67505 11.4115 9.42965 11.4484 9.41738C11.4607 9.39284 11.473 9.38057 11.4977 9.35603C11.5223 9.33149 11.5223 9.33149 11.5469 9.31922L11.8424 9.01246C11.8793 8.97565 12.1132 8.76705 12.1132 8.71797C12.0886 8.69343 12.1132 8.71797 12.0886 8.69343L12.0639 8.66889L11.9285 8.54619C11.8916 8.49711 11.7931 8.41122 11.7562 8.36214L11.6331 8.2517C11.5715 8.20262 11.3622 7.98176 11.313 7.93268L10.6729 7.29463C10.6236 7.24554 10.5621 7.18419 10.5128 7.14738L10.3651 6.98787C10.3651 6.9756 10.3651 6.9756 10.3528 6.9756C10.3158 6.96333 10.3035 6.92652 10.2543 6.90198C10.2051 6.92652 10.1804 6.95106 10.1558 6.98787L10.1927 6.96333Z" fill="#2C2C2C" fill-opacity="0.7"/>
<path fill-rule="evenodd" clip-rule="evenodd" d="M11.3744 5.79799C11.1405 5.99432 11.0174 6.1661 10.8328 6.32561C10.7959 6.36242 10.8328 6.33788 10.7959 6.35015L10.6851 6.47286C10.7097 6.52194 10.7097 6.50967 10.7343 6.54648L11.2144 7.01275C11.276 7.0741 11.3375 7.13545 11.3621 7.18453L11.436 7.25815C11.436 7.25815 11.4483 7.25815 11.4483 7.27042L12.1254 7.93301C12.1992 8.00664 12.4701 8.31339 12.5563 8.33793C12.5686 8.30112 12.9379 7.95755 12.9871 7.8962C13.0364 7.84712 13.0856 7.7735 13.1348 7.76123L13.2333 7.63853L13.2826 7.51583L13.3072 7.28269C13.2579 7.00048 13.0979 6.96367 12.9871 6.81642C12.9625 6.81642 12.9625 6.82869 12.9625 6.79188C12.9256 6.76734 12.7902 6.64464 12.7778 6.59556L12.7286 6.55875L12.5316 6.36242L12.4947 6.32561L12.2977 6.12929C12.2485 6.10475 12.2608 6.11702 12.2362 6.06794C12.15 6.03113 12.0392 5.84707 11.8915 5.77345C11.6945 5.67529 11.5345 5.72437 11.3744 5.81026V5.79799Z" fill="#2C2C2C" fill-opacity="0.7"/>
<path fill-rule="evenodd" clip-rule="evenodd" d="M5.82245 11.958C5.81014 12.0071 5.79783 12.0316 5.77321 12.093L5.72397 12.1912C5.72397 12.1912 5.72397 12.2034 5.71166 12.2034V12.2157L5.62549 12.4366C5.62549 12.4366 5.62549 12.4488 5.61318 12.4488C5.61318 12.5102 5.49007 12.8169 5.45314 12.9028L5.35466 13.1482C5.35466 13.185 5.21924 13.5654 5.18231 13.6022C5.17 13.6513 5.15769 13.6881 5.13307 13.7372C5.13307 13.7495 5.12076 13.7863 5.10845 13.7986C5.08383 13.8599 5.09614 13.8354 5.07151 13.8599L5.0592 13.9458L5.19462 13.909L5.68704 13.7249C5.74859 13.7004 5.83476 13.6636 5.89632 13.6636C5.93325 13.6268 5.95787 13.6268 6.01942 13.6022L6.37643 13.4795L6.83191 13.32L7.09043 13.2219L7.15199 13.2096C7.13968 13.1482 7.15199 13.185 7.10274 13.1237C7.10274 13.1237 7.09043 13.1237 7.09043 13.1114C7.09043 13.1114 7.09043 13.0992 7.07812 13.0992L6.94271 12.9642C6.88116 12.9274 6.64726 12.682 6.61033 12.6452C6.56108 12.6083 6.47491 12.5347 6.45029 12.4734C6.38874 12.4488 6.31487 12.3629 6.26563 12.3139C6.21639 12.277 6.21639 12.2648 6.17946 12.228C6.13022 12.1789 6.13022 12.2034 6.1056 12.1298C6.06866 12.1175 5.9948 12.0439 5.97018 12.0194C5.92094 11.9703 5.90863 11.9703 5.88401 11.9212C5.83476 11.9089 5.8717 11.9089 5.82245 11.8844L5.77321 11.9948L5.82245 11.958Z" fill="#2C2C2C" fill-opacity="0.7"/>
</g>
<defs>
<clipPath id="clip0_73_46">
<rect width="8.23333" height="8.23333" fill="white" transform="translate(5.06665 5.69995)"/>
</clipPath>
</defs>
</svg>
